<?xml version="1.0" encoding="us-ascii" standalone="no"?><svg xmlns="http://www.w3.org/2000/svg" xmlns:xlink="http://www.w3.org/1999/xlink" contentStyleType="text/css" height="415px" preserveAspectRatio="none" style="width:1011px;height:415px;background:#FFFFFF;" version="1.1" viewBox="0 0 1011 415" width="1011px" zoomAndPan="magnify"><defs/><g><rect fill="none" height="312.8281" style="stroke:#000000;stroke-width:1.5;" width="994" x="10" y="51.9844"/><rect fill="none" height="43.8281" style="stroke:#000000;stroke-width:1.5;" width="537" x="20" y="158.6406"/><rect fill="none" height="43.8281" style="stroke:#000000;stroke-width:1.5;" width="537" x="20" y="313.9844"/><line style="stroke:#181818;stroke-width:0.5;stroke-dasharray:5.0,5.0;" x1="160" x2="160" y1="34.9844" y2="381.8125"/><line style="stroke:#181818;stroke-width:0.5;stroke-dasharray:5.0,5.0;" x1="423" x2="423" y1="34.9844" y2="381.8125"/><line style="stroke:#181818;stroke-width:0.5;stroke-dasharray:5.0,5.0;" x1="651" x2="651" y1="34.9844" y2="381.8125"/><line style="stroke:#181818;stroke-width:0.5;stroke-dasharray:5.0,5.0;" x1="875" x2="875" y1="34.9844" y2="381.8125"/><rect fill="#E3E3E3" height="28.9844" rx="2.5" ry="2.5" style="stroke:#181818;stroke-width:0.5;" width="260" x="30" y="5"/><text fill="#000000" font-family="Architects daughter" font-size="14" lengthAdjust="spacing" textLength="246" x="37" y="25.2344">DecentralDigitalTwinRegistryService</text><rect fill="#E3E3E3" height="28.9844" rx="2.5" ry="2.5" style="stroke:#181818;stroke-width:0.5;" width="260" x="30" y="380.8125"/><text fill="#000000" font-family="Architects daughter" font-size="14" lengthAdjust="spacing" textLength="246" x="37" y="401.0469">DecentralDigitalTwinRegistryService</text><rect fill="#E3E3E3" height="28.9844" rx="2.5" ry="2.5" style="stroke:#181818;stroke-width:0.5;" width="247" x="300" y="5"/><text fill="#000000" font-family="Architects daughter" font-size="14" lengthAdjust="spacing" textLength="233" x="307" y="25.2344">RememberedConnectorEndpointsCache</text><rect fill="#E3E3E3" height="28.9844" rx="2.5" ry="2.5" style="stroke:#181818;stroke-width:0.5;" width="247" x="300" y="380.8125"/><text fill="#000000" font-family="Architects daughter" font-size="14" lengthAdjust="spacing" textLength="233" x="307" y="401.0469">RememberedConnectorEndpointsCache</text><rect fill="#E3E3E3" height="28.9844" rx="2.5" ry="2.5" style="stroke:#181818;stroke-width:0.5;" width="189" x="557" y="5"/><text fill="#000000" font-family="Architects daughter" font-size="14" lengthAdjust="spacing" textLength="175" x="564" y="25.2344">ConnectorEndpointsService</text><rect fill="#E3E3E3" height="28.9844" rx="2.5" ry="2.5" style="stroke:#181818;stroke-width:0.5;" width="189" x="557" y="380.8125"/><text fill="#000000" font-family="Architects daughter" font-size="14" lengthAdjust="spacing" textLength="175" x="564" y="401.0469">ConnectorEndpointsService</text><rect fill="#E3E3E3" height="28.9844" rx="2.5" ry="2.5" style="stroke:#181818;stroke-width:0.5;" width="238" x="756" y="5"/><text fill="#000000" font-family="Architects daughter" font-size="14" lengthAdjust="spacing" textLength="224" x="763" y="25.2344">EndpointDataForConnectorsService</text><rect fill="#E3E3E3" height="28.9844" rx="2.5" ry="2.5" style="stroke:#181818;stroke-width:0.5;" width="238" x="756" y="380.8125"/><text fill="#000000" font-family="Architects daughter" font-size="14" lengthAdjust="spacing" textLength="224" x="763" y="401.0469">EndpointDataForConnectorsService</text><path d="M10,51.9844 L74,51.9844 L74,57.8984 L64,67.8984 L10,67.8984 L10,51.9844 " fill="#EEEEEE" style="stroke:#000000;stroke-width:1.5;"/><rect fill="none" height="312.8281" style="stroke:#000000;stroke-width:1.5;" width="994" x="10" y="51.9844"/><text fill="#000000" font-family="Architects daughter" font-size="13" font-weight="bold" lengthAdjust="spacing" textLength="19" x="25" y="65.2734">alt</text><text fill="#000000" font-family="Architects daughter" font-size="11" font-weight="bold" lengthAdjust="spacing" textLength="156" x="89" y="64.3828">[EDC is available for BPN]</text><polygon fill="#181818" points="411.5,83.8125,421.5,87.8125,411.5,91.8125,415.5,87.8125" style="stroke:#181818;stroke-width:1.0;"/><line style="stroke:#181818;stroke-width:1.0;" x1="160" x2="417.5" y1="87.8125" y2="87.8125"/><text fill="#000000" font-family="Architects daughter" font-size="13" font-weight="bold" lengthAdjust="spacing" textLength="26" x="167" y="84.1875">[01]</text><text fill="#000000" font-family="Architects daughter" font-size="13" lengthAdjust="spacing" textLength="172" x="197" y="84.1875">get preferred EDC for BPN</text><polygon fill="#181818" points="171,111.7266,161,115.7266,171,119.7266,167,115.7266" style="stroke:#181818;stroke-width:1.0;"/><line style="stroke:#181818;stroke-width:1.0;" x1="165" x2="422.5" y1="115.7266" y2="115.7266"/><text fill="#000000" font-family="Architects daughter" font-size="13" font-weight="bold" lengthAdjust="spacing" textLength="26" x="177" y="112.1016">[02]</text><text fill="#000000" font-family="Architects daughter" font-size="13" lengthAdjust="spacing" textLength="90" x="207" y="112.1016">preferred EDC</text><polygon fill="#181818" points="863,139.6406,873,143.6406,863,147.6406,867,143.6406" style="stroke:#181818;stroke-width:1.0;"/><line style="stroke:#181818;stroke-width:1.0;" x1="160" x2="869" y1="143.6406" y2="143.6406"/><text fill="#000000" font-family="Architects daughter" font-size="13" font-weight="bold" lengthAdjust="spacing" textLength="26" x="167" y="140.0156">[03]</text><text fill="#000000" font-family="Architects daughter" font-size="13" lengthAdjust="spacing" textLength="148" x="197" y="140.0156">get DTR contract offer</text><path d="M20,158.6406 L85,158.6406 L85,164.5547 L75,174.5547 L20,174.5547 L20,158.6406 " fill="#EEEEEE" style="stroke:#000000;stroke-width:1.5;"/><rect fill="none" height="43.8281" style="stroke:#000000;stroke-width:1.5;" width="537" x="20" y="158.6406"/><text fill="#000000" font-family="Architects daughter" font-size="13" font-weight="bold" lengthAdjust="spacing" textLength="20" x="35" y="171.9297">opt</text><text fill="#000000" font-family="Architects daughter" font-size="11" font-weight="bold" lengthAdjust="spacing" textLength="150" x="100" y="171.0391">[no contract offer found]</text><polygon fill="#181818" points="411.5,190.4688,421.5,194.4688,411.5,198.4688,415.5,194.4688" style="stroke:#181818;stroke-width:1.0;"/><line style="stroke:#181818;stroke-width:1.0;" x1="160" x2="417.5" y1="194.4688" y2="194.4688"/><text fill="#000000" font-family="Architects daughter" font-size="13" font-weight="bold" lengthAdjust="spacing" textLength="26" x="167" y="190.8438">[04]</text><text fill="#000000" font-family="Architects daughter" font-size="13" lengthAdjust="spacing" textLength="138" x="197" y="190.8438">remove preferred EDC</text><line style="stroke:#000000;stroke-width:1.0;stroke-dasharray:2.0,2.0;" x1="10" x2="1004" y1="210.4688" y2="210.4688"/><text fill="#000000" font-family="Architects daughter" font-size="11" font-weight="bold" lengthAdjust="spacing" textLength="408" x="15" y="220.8672">[no preferred EDC for BPN or no DTR contract offer in preferred EDC]</text><polygon fill="#181818" points="639.5,239.1563,649.5,243.1563,639.5,247.1563,643.5,243.1563" style="stroke:#181818;stroke-width:1.0;"/><line style="stroke:#181818;stroke-width:1.0;" x1="160" x2="645.5" y1="243.1563" y2="243.1563"/><text fill="#000000" font-family="Architects daughter" font-size="13" font-weight="bold" lengthAdjust="spacing" textLength="26" x="167" y="239.5313">[05]</text><text fill="#000000" font-family="Architects daughter" font-size="13" lengthAdjust="spacing" textLength="110" x="197" y="239.5313">get EDCs for BPN</text><polygon fill="#181818" points="171,267.0703,161,271.0703,171,275.0703,167,271.0703" style="stroke:#181818;stroke-width:1.0;"/><line style="stroke:#181818;stroke-width:1.0;" x1="165" x2="650.5" y1="271.0703" y2="271.0703"/><text fill="#000000" font-family="Architects daughter" font-size="13" font-weight="bold" lengthAdjust="spacing" textLength="26" x="177" y="267.4453">[06]</text><text fill="#000000" font-family="Architects daughter" font-size="13" lengthAdjust="spacing" textLength="56" x="207" y="267.4453">EDC URLs</text><polygon fill="#181818" points="863,294.9844,873,298.9844,863,302.9844,867,298.9844" style="stroke:#181818;stroke-width:1.0;"/><line style="stroke:#181818;stroke-width:1.0;" x1="160" x2="869" y1="298.9844" y2="298.9844"/><text fill="#000000" font-family="Architects daughter" font-size="13" font-weight="bold" lengthAdjust="spacing" textLength="26" x="167" y="295.3594">[07]</text><text fill="#000000" font-family="Architects daughter" font-size="13" lengthAdjust="spacing" textLength="148" x="197" y="295.3594">get DTR contract offer</text><path d="M20,313.9844 L85,313.9844 L85,319.8984 L75,329.8984 L20,329.8984 L20,313.9844 " fill="#EEEEEE" style="stroke:#000000;stroke-width:1.5;"/><rect fill="none" height="43.8281" style="stroke:#000000;stroke-width:1.5;" width="537" x="20" y="313.9844"/><text fill="#000000" font-family="Architects daughter" font-size="13" font-weight="bold" lengthAdjust="spacing" textLength="20" x="35" y="327.2734">opt</text><text fill="#000000" font-family="Architects daughter" font-size="11" font-weight="bold" lengthAdjust="spacing" textLength="156" x="100" y="326.3828">[DTR contract offer found]</text><polygon fill="#181818" points="411.5,345.8125,421.5,349.8125,411.5,353.8125,415.5,349.8125" style="stroke:#181818;stroke-width:1.0;"/><line style="stroke:#181818;stroke-width:1.0;" x1="160" x2="417.5" y1="349.8125" y2="349.8125"/><text fill="#000000" font-family="Architects daughter" font-size="13" font-weight="bold" lengthAdjust="spacing" textLength="26" x="167" y="346.1875">[08]</text><text fill="#000000" font-family="Architects daughter" font-size="13" lengthAdjust="spacing" textLength="118" x="197" y="346.1875">add preferred EDC</text><!--SRC=[dL9DJuD04BtpAoQzD-dPc2PQxCaq1kl9U9Zk3h0HTidiKDD_xq1j1KiraOJmCU-zUUz1V7U-GSOQwk23AJdK1C8j9V4yYINQyE5y0JbMSJYnb6DRoJfusQ0IPtTiIYTa98B5jYY5U9Oa2ROIV5llY65skrk-BXPl-bern1dNe1T8oP0NnYfrXHEijheley95uSCpyTuP0bHHuQ-d4JkZcZfriglWlQuF_E1j4voNk49JzbpJtOneb-3XAXTDs1CVHfGJCaN1TU2pmf19rdIPAqMdAt0HS8-kmbr5a0U6-wTD0dfyPu7vykZk1WeIQ9XoOWtJywzGRkSdoWW-eQnsZhhfDWCJkfQDGCYLrAD38-33ZuckRRtjvrUzCjLQqCH-KcP2-gjqkfDfG2ywktG4plyPwFnbZh4K57zfQO3k3BnaZ_6V9Ksu7RSqNHDQUwKZFJy1]--></g></svg>